<svg width="92" height="31" viewBox="0 0 92 31" fill="none" xmlns="http://www.w3.org/2000/svg">
<path d="M8.048 9.976C7.024 9.976 6.17067 10.232 5.488 10.744C4.80533 11.256 4.29333 11.9173 3.952 12.728C3.61067 13.5387 3.44 14.4347 3.44 15.416V23H0.272V15.096C0.272 13.56 0.570667 12.184 1.168 10.968C1.76533 9.73067 2.64 8.74933 3.792 8.024C4.944 7.29867 6.36267 6.936 8.048 6.936C9.776 6.936 11.216 7.29867 12.368 8.024C13.5413 8.74933 14.4267 9.73067 15.024 10.968C15.6427 12.184 15.952 13.5493 15.952 15.064V23H12.784V15.448C12.784 14.4667 12.6027 13.5707 12.24 12.76C11.8987 11.928 11.376 11.256 10.672 10.744C9.98933 10.232 9.11467 9.976 8.048 9.976ZM21.1308 7.32H24.2988V23H21.1308V7.32ZM22.6988 4.216C22.3361 4.216 21.9948 4.13067 21.6748 3.96C21.3548 3.768 21.0988 3.512 20.9068 3.192C20.7148 2.872 20.6188 2.52 20.6188 2.136C20.6188 1.752 20.7148 1.4 20.9068 1.08C21.0988 0.759998 21.3548 0.503998 21.6748 0.311998C21.9948 0.119998 22.3361 0.0239983 22.6988 0.0239983C23.0828 0.0239983 23.4241 0.119998 23.7228 0.311998C24.0428 0.503998 24.2881 0.759998 24.4588 1.08C24.6508 1.4 24.7468 1.752 24.7468 2.136C24.7468 2.52 24.6508 2.872 24.4588 3.192C24.2881 3.512 24.0428 3.768 23.7228 3.96C23.4241 4.13067 23.0828 4.216 22.6988 4.216ZM45.1715 30.2H42.0035V17.784L43.6355 16.952C43.6355 18.104 43.3155 19.1707 42.6755 20.152C42.0355 21.112 41.1822 21.8907 40.1155 22.488C39.0702 23.0853 37.9182 23.384 36.6595 23.384C35.0808 23.384 33.6728 23.032 32.4355 22.328C31.1982 21.6027 30.2275 20.6213 29.5235 19.384C28.8195 18.1253 28.4675 16.7067 28.4675 15.128C28.4675 13.6347 28.8302 12.2693 29.5555 11.032C30.3022 9.77333 31.3048 8.78133 32.5635 8.056C33.8222 7.30933 35.2408 6.936 36.8195 6.936C38.3982 6.936 39.8168 7.29867 41.0755 8.024C42.3342 8.728 43.3262 9.69867 44.0515 10.936C44.7982 12.1733 45.1715 13.5707 45.1715 15.128V30.2ZM36.8195 20.408C37.8008 20.408 38.6862 20.1733 39.4755 19.704C40.2648 19.2133 40.8835 18.5733 41.3315 17.784C41.7795 16.9733 42.0035 16.0987 42.0035 15.16C42.0035 14.2 41.7795 13.3253 41.3315 12.536C40.8835 11.7467 40.2648 11.1173 39.4755 10.648C38.6862 10.1787 37.8008 9.944 36.8195 9.944C35.8382 9.944 34.9528 10.1787 34.1635 10.648C33.3955 11.1173 32.7768 11.7467 32.3075 12.536C31.8595 13.3253 31.6355 14.2 31.6355 15.16C31.6355 16.0987 31.8595 16.9733 32.3075 17.784C32.7768 18.5733 33.3955 19.2133 34.1635 19.704C34.9528 20.1733 35.8382 20.408 36.8195 20.408ZM57.1975 20.312C58.1788 20.312 59.0002 20.0667 59.6615 19.576C60.3442 19.064 60.8562 18.392 61.1975 17.56C61.5388 16.728 61.7095 15.832 61.7095 14.872V7.32H64.8775V15.256C64.8775 16.7707 64.5788 18.1467 63.9815 19.384C63.3842 20.6 62.5095 21.5707 61.3575 22.296C60.2268 23.0213 58.8402 23.384 57.1975 23.384C55.5762 23.384 54.2002 23.0213 53.0695 22.296C51.9388 21.5493 51.0748 20.568 50.4775 19.352C49.8802 18.1147 49.5815 16.7387 49.5815 15.224V7.32H52.7495V14.904C52.7495 15.8427 52.9202 16.728 53.2615 17.56C53.6028 18.392 54.1042 19.064 54.7655 19.576C55.4268 20.0667 56.2375 20.312 57.1975 20.312ZM76.6313 23.352C75.0526 23.352 73.6339 23 72.3753 22.296C71.1166 21.5707 70.1246 20.5893 69.3993 19.352C68.6739 18.0933 68.3113 16.664 68.3113 15.064C68.3113 13.5707 68.6419 12.2053 69.3033 10.968C69.9646 9.70933 70.8926 8.71733 72.0873 7.992C73.2819 7.24533 74.6686 6.872 76.2473 6.872C77.8259 6.872 79.1806 7.224 80.3113 7.928C81.4633 8.61067 82.3486 9.54933 82.9673 10.744C83.6073 11.9173 83.9272 13.2293 83.9272 14.68V15.96H70.7753L71.3513 14.68C71.2873 15.7893 71.4686 16.7813 71.8953 17.656C72.3219 18.5307 72.9406 19.2347 73.7513 19.768C74.5619 20.28 75.5113 20.536 76.5993 20.536C77.5806 20.536 78.4659 20.3227 79.2553 19.896C80.0659 19.4693 80.7059 18.8293 81.1753 17.976L83.6073 19.224C82.9246 20.568 81.9753 21.592 80.7593 22.296C79.5433 23 78.1673 23.352 76.6313 23.352ZM71.5113 13.912H80.7593C80.7166 13.08 80.4926 12.344 80.0873 11.704C79.7033 11.064 79.1699 10.5733 78.4873 10.232C77.8259 9.89067 77.0686 9.72 76.2153 9.72C75.3406 9.72 74.5619 9.90133 73.8793 10.264C73.2179 10.6267 72.6846 11.128 72.2793 11.768C71.8953 12.408 71.6393 13.1227 71.5113 13.912ZM89.7963 23.288C89.4336 23.288 89.0923 23.192 88.7723 23C88.4523 22.8293 88.1963 22.584 88.0043 22.264C87.8123 21.944 87.7163 21.592 87.7163 21.208C87.7163 20.8027 87.8123 20.4507 88.0043 20.152C88.1963 19.8533 88.4523 19.6187 88.7723 19.448C89.0923 19.256 89.4336 19.16 89.7963 19.16C90.1803 19.16 90.5216 19.256 90.8203 19.448C91.1403 19.6187 91.3963 19.8533 91.5883 20.152C91.7803 20.4507 91.8763 20.8027 91.8763 21.208C91.8763 21.592 91.7803 21.944 91.5883 22.264C91.3963 22.584 91.1403 22.8293 90.8203 23C90.5216 23.192 90.1803 23.288 89.7963 23.288Z" fill="white"/>
</svg>
